<?xml version="1.0" standalone="no"?>
<!DOCTYPE svg PUBLIC "-//W3C//DTD SVG 20010904//EN"
 "http://www.w3.org/TR/2001/REC-SVG-20010904/DTD/svg10.dtd">
<svg version="1.0" xmlns="http://www.w3.org/2000/svg"
 width="608.000000pt" height="649.000000pt" viewBox="0 0 608.000000 649.000000"
 preserveAspectRatio="xMidYMid meet">
<metadata>
Created by potrace 1.16, written by Peter Selinger 2001-2019
</metadata>
<g transform="translate(0.000000,649.000000) scale(0.100000,-0.100000)"
fill="#000000" stroke="none">
<path d="M0 3245 l0 -3245 3040 0 3040 0 0 3245 0 3245 -3040 0 -3040 0 0
-3245z m5940 10 l0 -3105 -2905 -2 -2905 -3 0 3108 0 3107 2905 0 2905 0 0
-3105z"/>
<path d="M240 3253 l0 -3008 2795 0 2795 0 0 3008 0 3007 -2795 0 -2795 0 0
-3007z m2562 2315 l-3 -123 -430 3 -429 2 0 -662 0 -663 -135 0 -135 0 0 783
0 782 568 0 567 0 -3 -122z m518 -660 l0 -783 -135 0 -135 0 0 783 0 782 135
0 135 0 0 -782z m756 413 l-370 -370 86 -88 c113 -116 681 -736 675 -737 -1
-1 -81 0 -178 2 l-177 3 -373 396 c-206 218 -374 399 -374 403 0 4 162 177
360 383 l360 375 180 1 180 1 -369 -369z m809 -1597 c151 -30 311 -134 399
-258 25 -35 46 -66 46 -68 0 -12 -142 -98 -152 -92 -6 4 -8 3 -4 -4 3 -6 -8
-22 -26 -35 l-31 -25 -19 37 c-24 48 -106 132 -161 164 -91 54 -245 74 -360
48 -117 -27 -248 -125 -311 -234 -46 -79 -77 -183 -83 -283 -15 -248 111 -459
326 -544 159 -62 374 -34 494 66 31 25 90 94 107 123 6 12 18 7 61 -25 30 -22
77 -53 104 -69 28 -16 52 -30 54 -32 8 -6 -50 -83 -100 -132 -190 -187 -495
-256 -775 -176 -125 36 -222 94 -319 190 -167 166 -233 344 -222 600 6 149 23
226 77 340 152 327 505 488 895 409z m-3106 -209 c44 -110 137 -339 206 -510
171 -419 325 -804 325 -810 0 -3 -62 -5 -138 -5 l-138 0 -71 188 -71 187 -342
0 -343 0 -74 -187 -75 -188 -138 0 -138 0 58 143 c69 170 233 570 294 717 24
58 88 213 141 345 54 132 106 258 115 280 l17 40 146 0 145 0 81 -200z m1579
180 c90 -21 167 -62 232 -122 97 -89 140 -200 140 -363 0 -261 -139 -432 -391
-480 -27 -5 -159 -10 -294 -11 l-245 -2 0 -263 0 -264 -135 0 -135 0 0 760 0
760 383 0 c303 0 395 -3 445 -15z m-143 -2079 c93 -39 102 -196 13 -242 -99
-51 -219 26 -203 131 8 50 27 80 68 105 38 24 75 25 122 6z m-1971 -17 c20
-16 26 -29 26 -58 0 -51 -24 -71 -94 -78 l-56 -6 0 -48 c0 -42 -3 -49 -20 -49
-19 0 -20 7 -20 130 l0 130 69 0 c54 0 74 -4 95 -21z m174 -55 l38 -76 35 76
c27 60 38 75 56 76 22 0 22 -1 -12 -76 -19 -42 -47 -99 -62 -127 -25 -47 -32
-52 -65 -55 -29 -2 -38 0 -38 12 0 9 8 16 18 16 11 0 26 8 36 18 15 18 13 24
-38 115 -54 95 -54 97 -31 97 21 0 31 -13 63 -76z m444 -54 c-3 -121 -4 -130
-23 -130 -18 0 -19 8 -19 115 l0 115 -70 0 -70 0 0 -115 c0 -108 -1 -115 -20
-115 -19 0 -20 7 -20 130 l0 130 113 0 112 0 -3 -130z m328 1 c0 -120 -1 -129
-20 -134 -19 -5 -20 0 -20 114 l0 119 -70 0 -70 0 0 -114 c0 -105 -1 -114 -20
-119 -19 -5 -20 0 -20 129 l0 134 110 0 110 0 0 -129z m271 47 c18 -46 43
-104 56 -130 l23 -48 -28 0 c-24 0 -31 6 -38 33 -9 31 -11 32 -71 35 l-61 3
-11 -34 c-9 -25 -19 -36 -37 -40 -16 -3 -23 0 -20 7 13 30 89 214 97 234 5 14
17 22 33 22 21 0 28 -11 57 -82z m339 20 l0 -63 58 63 c40 44 64 62 82 62 22
0 19 -6 -35 -60 l-59 -60 67 -68 c37 -37 67 -70 67 -74 0 -20 -54 14 -112 71
l-68 65 0 -70 c0 -63 -2 -70 -20 -70 -19 0 -20 7 -20 133 0 126 1 133 20 133
18 0 20 -7 20 -62z m680 -9 c19 -39 38 -73 41 -75 4 -2 26 30 48 71 36 65 45
75 69 75 l27 0 1 -130 c1 -119 -1 -130 -17 -130 -16 0 -19 12 -21 108 l-3 107
-42 -80 c-26 -52 -47 -80 -58 -80 -11 0 -31 27 -56 74 -21 41 -41 77 -44 79
-3 3 -2 -43 2 -101 l6 -107 -24 0 -24 0 0 130 0 130 31 0 c28 0 33 -6 64 -71z
m510 -59 c0 -123 -1 -130 -20 -130 -19 0 -20 7 -20 115 l0 115 -70 0 -70 0 0
-114 c0 -105 -1 -114 -20 -119 -19 -5 -20 0 -20 129 l0 134 110 0 110 0 0
-130z m250 88 c7 -24 29 -82 50 -130 l38 -88 -24 0 c-18 0 -27 9 -39 36 -14
35 -15 35 -72 32 -55 -3 -58 -4 -67 -35 -7 -26 -14 -33 -33 -33 -14 0 -23 4
-21 9 2 4 25 63 52 130 46 112 52 121 76 121 23 0 29 -6 40 -42z m202 -13 l-4
-55 71 0 71 0 0 55 c0 48 2 55 20 55 19 0 20 -7 20 -129 0 -120 -1 -129 -20
-134 -18 -5 -20 0 -20 56 l0 62 -70 -3 -70 -4 0 -54 c0 -47 -2 -54 -20 -54
-19 0 -20 7 -20 130 0 128 0 130 23 130 21 0 22 -4 19 -55z m320 -47 c-2 -64
0 -99 6 -93 5 6 37 52 71 103 47 70 67 92 84 92 22 0 22 -1 19 -130 -3 -124
-4 -130 -24 -130 -19 0 -20 4 -16 100 4 116 9 117 -77 -20 -42 -67 -54 -79
-77 -80 l-28 0 0 130 c0 128 0 130 23 130 22 0 22 -2 19 -102z m326 2 c-2 -55
-3 -100 -2 -100 1 0 32 45 69 100 54 80 72 100 91 100 l24 0 0 -129 c0 -120
-1 -129 -20 -134 -18 -5 -20 1 -22 98 l-3 103 -65 -99 c-50 -75 -70 -98 -87
-99 -23 0 -23 2 -23 130 0 126 1 130 21 130 21 0 21 -4 17 -100z m-2717 -451
c21 -7 53 -25 71 -40 l33 -29 -23 -18 c-24 -18 -24 -18 -52 10 -24 23 -37 28
-79 28 -44 0 -56 -5 -88 -34 -33 -30 -37 -39 -41 -92 -3 -50 0 -64 20 -94 13
-19 35 -41 48 -48 39 -20 107 -9 140 23 24 23 31 25 49 16 24 -13 25 -20 8
-42 -26 -35 -81 -59 -134 -59 -63 0 -99 13 -136 48 -43 41 -57 75 -57 142 0
34 6 73 14 88 21 40 69 82 112 97 48 17 67 18 115 4z m642 0 c21 -5 54 -24 73
-41 l36 -32 -23 -17 c-21 -16 -23 -15 -43 8 -25 28 -78 42 -124 32 -116 -24
-140 -208 -33 -264 52 -27 124 -12 165 33 18 21 18 21 39 2 20 -19 20 -20 2
-40 -29 -32 -98 -60 -146 -60 -99 1 -177 71 -187 169 -8 89 35 167 113 202 46
21 75 23 128 8z m1229 1 c134 -38 182 -216 87 -325 -38 -43 -85 -58 -159 -53
-101 7 -170 83 -170 188 0 138 112 226 242 190z m-2707 -107 c20 -60 52 -141
71 -182 19 -41 33 -75 32 -77 -2 -1 -19 -4 -37 -6 -34 -3 -36 -1 -50 45 l-15
47 -81 0 -81 0 -15 -46 c-13 -43 -17 -47 -51 -49 l-37 -2 15 36 c14 33 112
283 127 324 5 12 17 17 45 17 l40 0 37 -107z m419 93 c46 -19 66 -52 66 -107
0 -76 -47 -109 -156 -109 l-54 0 0 -75 0 -74 -30 2 -30 2 0 188 0 187 85 0
c51 0 99 -6 119 -14z m1548 -11 c-4 -23 -8 -25 -63 -25 l-59 0 0 -164 0 -165
-30 1 -31 1 3 164 3 163 -64 0 c-53 0 -62 2 -57 16 3 9 6 20 6 25 0 5 65 9
149 9 l148 0 -5 -25z m297 19 c17 -4 45 -19 61 -34 25 -24 30 -36 30 -77 0
-75 -34 -100 -154 -112 l-59 -6 2 -71 2 -71 -30 -1 -31 -1 0 190 0 189 74 0
c40 0 88 -3 105 -6z m763 -136 l-3 -142 93 142 c90 137 94 142 128 142 l35 0
-2 -187 -2 -188 -30 -1 -30 -2 2 144 c1 79 -1 140 -4 136 -4 -4 -47 -68 -97
-143 -80 -119 -95 -136 -117 -135 l-26 2 -2 187 -2 187 30 0 30 0 -3 -142z"/>
<path d="M1536 3395 c-9 -22 -67 -167 -129 -322 l-113 -283 248 0 c192 0 248
3 248 13 0 6 -16 53 -36 102 -39 100 -189 492 -196 515 -4 10 -11 0 -22 -25z"/>
<path d="M2808 3474 c-5 -4 -8 -125 -8 -269 0 -194 -3 -265 -12 -275 -7 -8 -4
-7 7 2 17 14 55 17 255 20 232 3 236 3 285 30 97 51 138 120 138 228 0 116
-69 212 -178 246 -55 18 -473 33 -487 18z"/>
<path d="M3097 1564 c-34 -34 -42 -73 -23 -117 26 -64 97 -78 147 -28 33 34
39 83 14 130 -25 50 -96 58 -138 15z"/>
<path d="M4115 998 c-34 -26 -55 -75 -55 -125 0 -98 109 -164 190 -117 79 47
89 179 19 238 -40 34 -113 36 -154 4z"/>
<path d="M1810 955 l0 -65 58 0 c65 0 88 12 97 52 5 21 1 33 -19 52 -21 22
-34 26 -81 26 l-55 0 0 -65z"/>
<path d="M3674 974 c3 -26 6 -55 6 -65 0 -16 8 -19 53 -19 68 0 97 19 97 65 0
47 -29 65 -104 65 l-59 0 7 -46z"/>
<path d="M5850 2784 c0 -218 4 -353 9 -345 9 14 41 25 41 13 0 -3 -7 -14 -17
-24 -10 -12 -12 -18 -4 -18 7 0 9 -5 4 -12 -13 -22 -12 -39 2 -36 8 2 14 -1
15 -6 2 -20 -30 -13 -35 7 -2 12 -6 31 -8 42 -3 11 -5 -206 -5 -482 -1 -442 0
-501 14 -496 11 4 12 8 3 20 -10 11 -9 17 3 29 14 14 16 14 22 -1 4 -13 2 -16
-9 -11 -8 3 -15 1 -15 -4 0 -6 4 -10 9 -10 5 0 17 -7 26 -16 9 -9 18 -14 21
-11 3 2 -2 12 -11 21 -12 12 -13 16 -3 16 10 0 9 3 -2 10 -10 6 -11 10 -2 10
7 0 12 15 12 41 0 25 -4 38 -10 34 -6 -4 -8 -10 -5 -15 3 -4 -6 -3 -19 3 -16
8 -20 14 -13 19 6 4 14 3 17 -2 3 -5 7 12 8 37 2 48 -9 52 -16 5 -4 -31 -9
-38 -19 -28 -4 4 -2 15 3 24 8 12 8 22 0 35 -8 14 -8 20 4 27 20 13 33 8 36
-14 5 -32 11 -27 12 9 1 20 4 40 7 45 4 6 -1 10 -10 10 -10 0 -15 -6 -12 -13
3 -8 -1 -14 -9 -14 -19 0 -18 13 4 35 9 9 18 29 19 42 1 14 -1 18 -3 8 -6 -20
-26 -29 -43 -18 -19 11 -15 24 11 32 l23 6 -22 1 c-14 1 -23 7 -23 17 0 8 5
12 10 9 14 -9 50 4 50 18 0 6 -15 26 -32 45 l-33 34 33 -4 c32 -5 32 -4 33 39
2 142 0 166 -9 172 -5 3 -12 15 -14 26 -4 25 -20 38 -29 23 -4 -6 -7 9 -6 34
0 29 5 45 13 45 8 0 10 -7 4 -22 -9 -24 3 -55 14 -36 4 6 2 11 -4 11 -8 0 -8
6 0 20 12 22 6 40 -14 40 -7 0 -12 15 -13 38 0 27 4 39 14 39 8 0 12 -6 9 -14
-3 -8 -2 -11 3 -8 16 9 25 -16 10 -26 -10 -7 -11 -11 -2 -17 7 -4 10 -28 8
-63 -2 -31 1 -63 6 -70 6 -9 9 23 8 84 -1 58 -5 97 -11 97 -6 0 -6 6 1 14 14
17 11 37 -9 53 -13 11 -13 12 3 7 15 -5 17 1 16 47 0 30 -3 47 -7 39 -11 -23
-48 -21 -49 3 -2 15 1 17 10 8 6 -6 16 -11 21 -11 6 0 0 7 -13 16 -18 13 -20
18 -10 25 11 7 11 9 -1 9 -13 0 -13 1 0 10 13 8 13 10 1 10 -11 0 -9 4 5 15
27 20 37 18 24 -6 -6 -11 -9 -25 -6 -32 2 -7 5 -4 5 6 1 10 6 15 12 12 6 -5 9
9 8 39 -2 24 -6 43 -10 40 -5 -2 -6 -11 -2 -19 3 -8 0 -15 -6 -15 -6 0 -11 5
-11 11 0 5 -5 7 -11 3 -8 -5 -8 -9 1 -14 8 -5 7 -9 -4 -13 -12 -5 -16 0 -16
23 0 17 3 29 8 28 4 -2 7 2 7 7 0 6 -3 9 -7 7 -5 -1 -8 5 -8 13 0 19 5 19 35
-1 l25 -16 0 38 c0 26 -3 34 -9 25 -6 -9 -11 -10 -15 -2 -4 6 0 14 9 17 14 6
14 8 -2 20 -17 13 -17 14 0 8 12 -4 17 -1 17 11 0 9 -4 14 -9 10 -5 -3 -12 -1
-15 4 -3 5 0 11 7 14 8 3 13 23 14 48 0 24 -1 34 -4 22 -5 -24 -18 -30 -27
-14 -4 5 0 12 6 14 8 3 5 6 -6 6 -12 1 -16 -4 -12 -14 3 -8 1 -15 -4 -15 -6 0
-10 15 -10 33 0 24 3 28 10 17 6 -9 10 -10 10 -3 0 6 -4 15 -10 18 -14 9 -12
45 3 45 7 0 8 3 2 8 -14 10 -19 62 -6 62 13 0 23 -17 14 -23 -5 -2 -2 -2 6 0
8 2 17 -1 21 -7 3 -5 7 16 8 48 1 37 -2 52 -8 42 -5 -8 -6 -18 -4 -22 7 -12
-19 -35 -34 -30 -6 2 -12 8 -12 13 0 6 6 7 13 3 9 -6 9 -5 0 7 -7 9 -12 32
-11 52 1 21 -2 40 -5 44 -4 3 -7 -155 -7 -353z"/>
<path d="M5886 1414 c-4 -9 -13 -14 -21 -10 -13 5 -15 -19 -15 -172 0 -97 4
-172 8 -167 10 15 52 18 52 5 0 -7 -6 -10 -13 -7 -7 3 -20 -1 -30 -8 -15 -11
-17 -50 -19 -419 l-3 -407 -237 1 c-197 0 -238 -2 -238 -13 0 -10 9 -13 28
-10 26 3 26 3 4 -7 -13 -5 -28 -7 -34 -4 -6 4 -14 0 -19 -7 -7 -11 -9 -10 -9
4 0 10 -4 16 -10 12 -5 -3 -7 -12 -3 -20 3 -8 0 -15 -6 -15 -6 0 -10 5 -8 11
1 6 -4 14 -12 17 -8 2 -11 0 -7 -6 3 -6 -2 -15 -11 -21 -13 -7 50 -10 210 -9
125 0 230 5 233 9 3 5 11 9 17 9 7 0 6 -4 -3 -10 -10 -7 16 -10 86 -9 l100 1
-2 217 c-1 119 -3 218 -4 221 -1 3 -2 9 -1 14 1 4 1 65 1 135 -1 145 -1 172
-1 206 1 60 -9 72 -29 35 -6 -11 -8 -20 -4 -20 3 0 1 -6 -5 -13 -15 -19 -1
-30 18 -14 14 10 14 10 3 -5 -8 -9 -11 -21 -9 -25 3 -5 -4 -9 -16 -10 -12 0
-16 1 -9 4 6 3 10 9 6 14 -3 5 -7 23 -9 40 -3 21 -1 28 8 22 9 -5 8 -2 -1 9
-10 12 -9 18 3 28 8 7 12 16 9 21 -3 5 0 9 6 9 7 0 9 -8 5 -20 -5 -15 -3 -18
9 -14 13 5 16 26 16 120 0 77 -4 114 -11 114 -6 0 -9 -6 -6 -13 3 -7 -4 -19
-15 -26 -11 -7 -17 -15 -14 -18 3 -3 12 0 21 7 10 8 15 9 15 1 0 -6 -4 -11 -9
-11 -6 0 -8 -9 -6 -20 2 -12 0 -18 -6 -15 -5 4 -7 11 -4 16 4 5 2 9 -4 9 -5 0
-11 -6 -14 -12 -2 -7 -4 1 -4 17 -1 17 4 33 9 36 8 5 14 24 17 52 1 4 6 7 12
7 5 0 7 -5 3 -11 -4 -7 -1 -10 7 -7 9 3 12 18 10 49 -2 24 -4 56 -4 70 0 18
-5 25 -14 22 -9 -4 -11 0 -7 11 3 9 4 16 1 16 -3 0 -8 -7 -11 -16z"/>
<path d="M4672 220 c2 -21 -5 -28 -22 -25 -12 2 -18 0 -15 -6 4 -5 11 -6 17
-3 6 4 8 3 5 -3 -3 -5 -23 -10 -43 -11 -55 -2 -55 -12 0 -12 40 0 48 4 58 24
6 14 16 27 23 30 23 9 50 -1 49 -18 -1 -9 2 -16 7 -16 5 0 9 8 10 18 0 10 3
12 6 4 2 -6 9 -10 13 -7 5 3 11 1 15 -5 7 -12 6 -12 -58 -15 -26 -1 -50 -5
-53 -8 -4 -3 70 -6 164 -6 94 -1 173 3 176 8 9 13 -45 34 -58 21 -5 -5 -14
-10 -20 -10 -6 0 -5 5 2 12 20 20 14 38 -13 38 -14 0 -24 -3 -22 -7 1 -5 -2
-8 -8 -8 -5 0 -9 4 -7 9 2 5 -4 4 -12 -4 -9 -7 -16 -8 -16 -3 0 6 -40 10 -99
10 -55 -1 -99 -4 -99 -7z"/>
</g>
</svg>
